<svg width="124" height="24" viewBox="0 0 124 24" fill="none" xmlns="http://www.w3.org/2000/svg">
<mask id="mask0_545_2" style="mask-type:alpha" maskUnits="userSpaceOnUse" x="0" y="0" width="28" height="24">
<rect width="27.8773" height="23.4952" fill="#C4C4C4"/>
</mask>
<g mask="url(#mask0_545_2)">
<path d="M6.54225 1.00864C6.54225 1.96369 6.73356 2.90939 7.10526 3.79175C7.47696 4.6741 8.02177 5.47583 8.70857 6.15115C9.39538 6.82647 10.2107 7.36217 11.1081 7.72765C12.0055 8.09314 12.9672 8.28125 13.9385 8.28125C14.9098 8.28125 15.8716 8.09314 16.769 7.72765C17.6663 7.36217 18.4817 6.82648 19.1685 6.15115C19.8553 5.47583 20.4001 4.6741 20.7718 3.79175C21.1435 2.90939 21.3348 1.96369 21.3348 1.00864L13.9385 1.00864L6.54225 1.00864Z" fill="white"/>
<path d="M26.606 21.7159C26.606 20.0802 26.2783 18.4605 25.6417 16.9493C25.0051 15.4381 24.072 14.065 22.8958 12.9084C21.7195 11.7518 20.323 10.8343 18.7862 10.2084C17.2493 9.58243 15.6021 9.26025 13.9385 9.26025C12.275 9.26025 10.6278 9.58243 9.09093 10.2084C7.55405 10.8343 6.1576 11.7518 4.98132 12.9084C3.80504 14.065 2.87197 15.4381 2.23537 16.9493C1.59877 18.4605 1.27112 20.0802 1.27112 21.7159L13.9385 21.7159H26.606Z" fill="white"/>
</g>
<path d="M56.9022 1.81601H60.3982V18.8895H56.7856V7.88914L51.5415 14.5352H51.0754L45.8312 7.63705V18.8895H42.2186V1.81601H45.7147L51.2851 9.03502L56.9022 1.81601Z" fill="white"/>
<path d="M64.7891 24.0001C64.4162 24.0001 64.051 23.9696 63.6937 23.9084C63.3518 23.8473 63.0488 23.748 62.7847 23.6105V20.7917C63.2819 20.9445 63.8102 21.0208 64.3696 21.0208C65.0688 21.0208 65.5505 20.8681 65.8146 20.5625C66.0943 20.2569 66.3118 19.9361 66.4672 19.6L66.7935 18.8895L61.8058 6.37659H65.5349L68.5416 14.4894L71.5482 6.37659H75.2774L69.7535 20.2646C69.6448 20.5549 69.4816 20.9063 69.2641 21.3188C69.0466 21.7466 68.7513 22.1667 68.3784 22.5792C68.0055 22.9917 67.5238 23.3279 66.9334 23.5876C66.3585 23.8626 65.6437 24.0001 64.7891 24.0001Z" fill="white"/>
<path d="M77.4478 18.8895V9.35586H75.2803V6.37659H77.4478V6.00991C77.4478 4.52791 77.8907 3.38204 78.7763 2.57229C79.662 1.76254 80.8973 1.35767 82.4822 1.35767C82.9483 1.35767 83.3601 1.39586 83.7175 1.47225V4.40569C83.4223 4.35985 83.1659 4.33694 82.9483 4.33694C81.6121 4.33694 80.9439 4.89459 80.9439 6.00991V6.37659H83.6942V9.35586H80.9439V18.8895H77.4478Z" fill="white"/>
<path d="M90.9964 19.1645C89.7378 19.1645 88.588 18.8819 87.547 18.3166C86.5214 17.7513 85.7057 16.9797 85.0997 16.0019C84.4937 15.0088 84.1907 13.8859 84.1907 12.6331C84.1907 11.365 84.4937 10.242 85.0997 9.26419C85.7057 8.28638 86.5214 7.51482 87.547 6.94953C88.588 6.38423 89.7378 6.10158 90.9964 6.10158C92.255 6.10158 93.3971 6.38423 94.4226 6.94953C95.4636 7.51482 96.2872 8.28638 96.8931 9.26419C97.4991 10.242 97.8021 11.365 97.8021 12.6331C97.8021 13.8859 97.4991 15.0088 96.8931 16.0019C96.2872 16.9797 95.4636 17.7513 94.4226 18.3166C93.3971 18.8819 92.255 19.1645 90.9964 19.1645ZM90.9964 16.0707C91.9598 16.0707 92.7289 15.7498 93.3038 15.1081C93.8943 14.4665 94.1895 13.6414 94.1895 12.6331C94.1895 11.64 93.8943 10.8226 93.3038 10.1809C92.7289 9.52392 91.9598 9.19544 90.9964 9.19544C90.0486 9.19544 89.2795 9.52392 88.689 10.1809C88.0986 10.8226 87.8033 11.64 87.8033 12.6331C87.8033 13.6414 88.0986 14.4665 88.689 15.1081C89.2795 15.7498 90.0486 16.0707 90.9964 16.0707Z" fill="white"/>
<path d="M99.4342 18.8895V1.81601H102.93V18.8895H99.4342Z" fill="white"/>
<path d="M105.261 5.25363V1.81601H108.757V5.25363H105.261ZM105.261 18.8895V6.37659H108.757V18.8895H105.261Z" fill="white"/>
<path d="M117.194 19.1645C115.936 19.1645 114.786 18.8819 113.745 18.3166C112.719 17.7513 111.904 16.9797 111.298 16.0019C110.692 15.0088 110.389 13.8859 110.389 12.6331C110.389 11.365 110.692 10.242 111.298 9.26419C111.904 8.28638 112.719 7.51482 113.745 6.94953C114.786 6.38423 115.936 6.10158 117.194 6.10158C118.453 6.10158 119.595 6.38423 120.62 6.94953C121.661 7.51482 122.485 8.28638 123.091 9.26419C123.697 10.242 124 11.365 124 12.6331C124 13.8859 123.697 15.0088 123.091 16.0019C122.485 16.9797 121.661 17.7513 120.62 18.3166C119.595 18.8819 118.453 19.1645 117.194 19.1645ZM117.194 16.0707C118.158 16.0707 118.927 15.7498 119.502 15.1081C120.092 14.4665 120.387 13.6414 120.387 12.6331C120.387 11.64 120.092 10.8226 119.502 10.1809C118.927 9.52392 118.158 9.19544 117.194 9.19544C116.246 9.19544 115.477 9.52392 114.887 10.1809C114.296 10.8226 114.001 11.64 114.001 12.6331C114.001 13.6414 114.296 14.4665 114.887 15.1081C115.477 15.7498 116.246 16.0707 117.194 16.0707Z" fill="white"/>
</svg>
